<?xml version="1.0" encoding="UTF-8"?>
<!--
Font Awesome Free 5.15.2 by @fontawesome - https://fontawesome.com
License - https://fontawesome.com/license/free (Icons: CC BY 4.0, Fonts: SIL OFL 1.1, Code: MIT License)
-->
<svg xmlns="http://www.w3.org/2000/svg" style="display: none;">
    <symbol id="rss" viewBox="0 0 448 512">
        <path d="M128.081 415.959c0 35.369-28.672 64.041-64.041 64.041S0 451.328 0 415.959s28.672-64.041 64.041-64.041 64.04 28.673 64.04 64.041zm175.66 47.25c-8.354-154.6-132.185-278.587-286.95-286.95C7.656 175.765 0 183.105 0 192.253v48.069c0 8.415 6.49 15.472 14.887 16.018 111.832 7.284 201.473 96.702 208.772 208.772.547 8.397 7.604 14.887 16.018 14.887h48.069c9.149.001 16.489-7.655 15.995-16.79zm144.249.288C439.596 229.677 251.465 40.445 16.503 32.01 7.473 31.686 0 38.981 0 48.016v48.068c0 8.625 6.835 15.645 15.453 15.999 191.179 7.839 344.627 161.316 352.465 352.465.353 8.618 7.373 15.453 15.999 15.453h48.068c9.034-.001 16.329-7.474 16.005-16.504z"></path>
    </symbol>
    <symbol id="linkedin-in" viewBox="0 0 448 512">
        <path d="M100.28 448H7.4V148.9h92.88zM53.79 108.1C24.09 108.1 0 83.5 0 53.8a53.79 53.79 0 0 1 107.58 0c0 29.7-24.1 54.3-53.79 54.3zM447.9 448h-92.68V302.4c0-34.7-.7-79.2-48.29-79.2-48.29 0-55.69 37.7-55.69 76.7V448h-92.78V148.9h89.08v40.8h1.3c12.4-23.5 42.69-48.3 87.88-48.3 94 0 111.28 61.9 111.28 142.3V448z"></path>
    </symbol>
    <symbol id="instagram" viewBox="0 0 448 512">
        <path d="M224.1 141c-63.6 0-114.9 51.3-114.9 114.9s51.3 114.9 114.9 114.9S339 319.5 339 255.9 287.7 141 224.1 141zm0 189.6c-41.1 0-74.7-33.5-74.7-74.7s33.5-74.7 74.7-74.7 74.7 33.5 74.7 74.7-33.6 74.7-74.7 74.7zm146.4-194.3c0 14.9-12 26.8-26.8 26.8-14.9 0-26.8-12-26.8-26.8s12-26.8 26.8-26.8 26.8 12 26.8 26.8zm76.1 27.2c-1.7-35.9-9.9-67.7-36.2-93.9-26.2-26.2-58-34.4-93.9-36.2-37-2.1-147.9-2.1-184.9 0-35.8 1.7-67.6 9.9-93.9 36.1s-34.4 58-36.2 93.9c-2.1 37-2.1 147.9 0 184.9 1.7 35.9 9.9 67.7 36.2 93.9s58 34.4 93.9 36.2c37 2.1 147.9 2.1 184.9 0 35.9-1.7 67.7-9.9 93.9-36.2 26.2-26.2 34.4-58 36.2-93.9 2.1-37 2.1-147.8 0-184.8zM398.8 388c-7.8 19.6-22.9 34.7-42.6 42.6-29.5 11.7-99.5 9-132.1 9s-102.7 2.6-132.1-9c-19.6-7.8-34.7-22.9-42.6-42.6-11.7-29.5-9-99.5-9-132.1s-2.6-102.7 9-132.1c7.8-19.6 22.9-34.7 42.6-42.6 29.5-11.7 99.5-9 132.1-9s102.7-2.6 132.1 9c19.6 7.8 34.7 22.9 42.6 42.6 11.7 29.5 9 99.5 9 132.1s2.7 102.7-9 132.1z"></path>
    </symbol>
    <symbol id="youtube" viewBox="0 0 576 512">
        <path d="M549.655 124.083c-6.281-23.65-24.787-42.276-48.284-48.597C458.781 64 288 64 288 64S117.22 64 74.629 75.486c-23.497 6.322-42.003 24.947-48.284 48.597-11.412 42.867-11.412 132.305-11.412 132.305s0 89.438 11.412 132.305c6.281 23.65 24.787 41.5 48.284 47.821C117.22 448 288 448 288 448s170.78 0 213.371-11.486c23.497-6.321 42.003-24.171 48.284-47.821 11.412-42.867 11.412-132.305 11.412-132.305s0-89.438-11.412-132.305zm-317.51 213.508V175.185l142.739 81.205-142.739 81.201z"></path>
    </symbol>
    <symbol id="twitter" viewBox="0 0 512 512">
        <path d="M459.37 151.716c.325 4.548.325 9.097.325 13.645 0 138.72-105.583 298.558-298.558 298.558-59.452 0-114.68-17.219-161.137-47.106 8.447.974 16.568 1.299 25.34 1.299 49.055 0 94.213-16.568 130.274-44.832-46.132-.975-84.792-31.188-98.112-72.772 6.498.974 12.995 1.624 19.818 1.624 9.421 0 18.843-1.3 27.614-3.573-48.081-9.747-84.143-51.98-84.143-102.985v-1.299c13.969 7.797 30.214 12.67 47.431 13.319-28.264-18.843-46.781-51.005-46.781-87.391 0-19.492 5.197-37.36 14.294-52.954 51.655 63.675 129.3 105.258 216.365 109.807-1.624-7.797-2.599-15.918-2.599-24.04 0-57.828 46.782-104.934 104.934-104.934 30.213 0 57.502 12.67 76.67 33.137 23.715-4.548 46.456-13.32 66.599-25.34-7.798 24.366-24.366 44.833-46.132 57.827 21.117-2.273 41.584-8.122 60.426-16.243-14.292 20.791-32.161 39.308-52.628 54.253z"></path>
    </symbol>
    <symbol id="facebook" viewBox="0 0 320 512">
        <path d="M279.14 288l14.22-92.66h-88.91v-60.13c0-25.35 12.42-50.06 52.24-50.06h40.42V6.26S260.43 0 225.36 0c-73.22 0-121.08 44.38-121.08 124.72v70.62H22.89V288h81.39v224h100.17V288z"></path>
    </symbol>
    <symbol id="flickr" viewBox="0 0 512 512">
        <path d="M116,144.9c61.4-1,112.4,50.9,112.3,112C228.2,318,178.1,369,116.3,369.1C54.3,369.2,4,318.4,3.8,257.1   C3.6,195.6,54.7,143.9,116,144.9z"></path> <path d="M285.8,256.9c-1.5-61.5,51.5-112.6,112.1-112.2c61.3,0.3,112.1,50.6,112,112.3   c-0.1,62.1-50.3,111.9-112.5,112.1C336,369.3,284.5,317.8,285.8,256.9z"></path>
    </symbol>
    <symbol id="pinterest" viewBox="0 0 48 48">
        <path d="M41.396,10.366c-0.006-0.023-0.002-0.041-0.01-0.064c-0.14-0.395-0.366-0.955-0.722-1.614  c-0.108-0.208-0.176-0.317-0.176-0.317l-0.001,0.001c-1.084-1.886-3.195-4.447-7.283-6.379c-7.352-3.708-14.895-1.534-19.561,1.15  C5.75,8.125,5.432,16.195,5.474,18.124c-0.013,0.978,0.277,3.05,1.042,4.857c1.043,2.038,1.872,2.982,2.681,3.628  c0.001,0.002,0.746,0.689,1.716,1.135c0.103,0.052,0.205,0.099,0.295,0.124c0.208,0.059,0.564,0.089,0.918-0.211  c0.234-0.218,0.334-0.494,0.334-0.494c0.25-0.425,0.583-2.171,0.583-2.171H13.04c0.042-0.16,0.071-0.309,0.081-0.438  c-0.01-0.529-0.476-1.109-0.476-1.109c-0.122-0.14-0.334-0.421-0.695-0.997c-1.306-2.27-1.086-5.072-1.021-5.673  c0.203-1.65,0.818-4.84,2.651-6.856c2.557-2.812,5.37-4.858,10.323-5.018c4.954-0.16,8.501,1.981,10.003,4.25  c0.631,1.027,1.078,2.035,1.328,2.758c0.147,0.499,0.675,2.56,0.398,5.904c-0.063,1.406-0.768,5.562-2.365,7.926  c-0.591,0.874-1.074,1.5-1.452,1.946c-0.035,0.045-0.072,0.082-0.107,0.123c-0.121,0.141-0.23,0.261-0.326,0.361  c-2.074,2.09-5.071,2.038-6.169,1.544c-1.214-0.563-1.852-1.418-2.193-2.228c-0.147-0.402-0.537-1.851,0.261-4.457 c0.229-0.798,0.489-1.664,0.72-2.34c0.433-1.274,0.828-3.305,0.997-4.236c0.001,0,0.001-0.001,0.001-0.002 c0.859-3.793-1.148-4.892-1.831-5.276s-2.6-0.682-4.262,0.426c-0.741,0.661-1.272,1.367-1.661,2.047c0,0,0-0.001-0.001-0.001  c-0.004,0.007-0.006,0.015-0.01,0.022c-0.69,1.215-0.912,2.338-0.98,2.949c-0.541,3.289,0.82,5.722,0.82,5.722l-2.812,11.805  c0,0-1.266,4.107-1.236,7.245c0.029,3.138,0.127,4.176,0.255,5.283s0.255,1.79,0.98,0.896c0.725-0.896,1.939-2.472,2.813-4.155  c0.874-1.683,1.523-2.717,2.322-5.912c0.799-3.196,1.521-6.193,1.521-6.193l0-0.006c0.026,0.039,0.057,0.092,0.076,0.114  c0.597,0.682,1.663,2.472,4.56,3.026c6.563,1.022,9.343-1.927,9.343-1.927c2.523-1.584,3.915-3.011,6.085-7.832  C43.526,18.291,42.39,13.066,41.396,10.366z"></path>
    </symbol>
    <symbol id="slideshare" viewBox="0 0 512 512">
        <path d="M194.599,164.076c-30.543,0-55.429,23.087-55.429,51.834c0,28.477,24.886,51.833,55.429,51.833 c30.543,0,55.427-23.356,55.427-51.833C250.026,187.163,225.143,164.076,194.599,164.076z M323.42,164.076 c-30.543,0-55.428,23.087-55.428,51.834c0,28.477,24.885,51.833,55.428,51.833c30.813,0,55.428-23.356,55.428-51.833     C378.938,187.163,354.232,164.076,323.42,164.076z M464.1,244.926l-5.391,3.863V70.648c0-24.615-18.504-44.648-41.322-44.648     H94.793c-22.818,0-41.324,20.033-41.324,44.648v178.14c-1.797-1.257-3.862-2.604-5.659-3.863     c-13.565-9.522-22.548,3.594-14.374,15.9c16.438,20.304,47.7,45.187,95.493,64.681     C78.354,497.72,252.362,525.208,249.577,436.992c0-0.63,0.27-50.847,0.27-86.779c4.582,0.986,8.444,2.064,12.306,2.783     c0,35.665,0.271,83.366,0.271,83.996c-2.785,88.304,171.223,60.817,120.646-111.396c47.703-19.495,79.055-44.379,95.494-64.68 C486.74,248.52,477.756,235.494,464.1,244.926z M436.701,262.174c-61.896,33.598-115.256,27.939-144.273,26.681 c-21.291-0.81-29.285,8.176-30.275,22.367c-9.252-6.916-16.708-13.923-18.236-15.36c-4.581-4.851-12.307-7.186-24.344-6.917 c-28.479,0.989-80.581,6.648-141.399-25.153V90.951c0-31.352,7.996-41.054,36.473-41.054h285.402 c27.221,0,36.742,11.588,36.742,41.054v171.223H436.701z"></path>
    </symbol>
    <symbol id="snapchat" viewBox="0 0 56.693 56.693">
        <path d="M28.6601,51.6829c-0.1281,0-0.2539-0.0037-0.3798-0.0096h-0.0003c-0.0802,0.0062-0.1641,0.0096-0.248,0.0096 c-2.9442,0-4.834-1.3358-6.6613-2.6278c-1.2618-0.8916-2.4524-1.7332-3.8554-1.9669c-0.6846-0.1133-1.366-0.1709-2.0245-0.1709 c-1.1863,0-2.1222,0.1831-2.8054,0.3167c-0.4152,0.0813-0.7734,0.1511-1.0456,0.1511c-0.2844,0-0.5926-0.0615-0.7265-0.5191  c-0.1164-0.3965-0.2006-0.7804-0.2816-1.1519c-0.2087-0.956-0.3569-1.5439-0.7575-1.6054  c-4.6697-0.7213-6.0062-1.7048-6.3042-2.4027c-0.0422-0.0998-0.0662-0.1998-0.0719-0.2988  c-0.0151-0.2681,0.1748-0.5048,0.4397-0.5481c7.1784-1.1821,10.3974-8.5188,10.531-8.8304  c0.0036-0.0086,0.0076-0.0169,0.0115-0.0255c0.4394-0.8903,0.5254-1.6632,0.2566-2.2967c-0.4926-1.161-2.0992-1.6712-3.1628-2.0086  c-0.2602-0.0823-0.5069-0.1602-0.7015-0.237c-2.1222-0.839-2.2988-1.7002-2.2154-2.1391c0.1422-0.7479,1.1417-1.2691,1.95-1.2691 c0.2217,0,0.4168,0.0393,0.5809,0.1159c0.9547,0.4472,1.815,0.6739,2.5574,0.6739c1.0258,0,1.4735-0.4311,1.5283-0.4876 c-0.0261-0.4858-0.0584-0.9933-0.0914-1.5168c-0.2138-3.3938-0.4787-7.6108,0.595-10.0179  c3.218-7.2154,10.0421-7.7759,12.0569-7.7759c0.0516,0,0.8833-0.0088,0.8833-0.0088l0.1193-0.0005  c2.0195,0,8.8585,0.5616,12.0783,7.7809c1.074,2.4084,0.8083,6.629,0.5941,10.0202l-0.0089,0.1474  c-0.0297,0.4723-0.0583,0.9312-0.0823,1.3706c0.0513,0.0524,0.4631,0.4488,1.3931,0.4845h0.001  c0.7067-0.0271,1.5189-0.2524,2.4102-0.6699c0.2613-0.1219,0.5514-0.1477,0.7489-0.1477c0.3016,0,0.6075,0.0584,0.8614,0.1644  l0.0154,0.0063c0.721,0.2555,1.1933,0.7609,1.2034,1.2889c0.0094,0.4972-0.3702,1.2448-2.2323,1.9804  c-0.193,0.0758-0.4397,0.1542-0.7009,0.237c-1.0646,0.3378-2.6707,0.8476-3.163,2.0083c-0.2691,0.6332-0.1829,1.4056,0.2563,2.2964  c0.0039,0.0086,0.0083,0.0169,0.0117,0.0261c0.1336,0.3113,3.3498,7.6459,10.5313,8.8293c0.2652,0.0437,0.4545,0.2802,0.4399,0.5486 c-0.006,0.1006-0.0305,0.2019-0.0734,0.3004c-0.2962,0.6929-1.6317,1.6751-6.3029,2.3969 c-0.3816,0.0586-0.5295,0.5559-0.7572,1.5986c-0.0828,0.3795-0.1667,0.7523-0.2821,1.1443  c-0.0995,0.3402-0.3115,0.4994-0.6681,0.4994h-0.0581c-0.2475,0-0.5994-0.0443-1.0453-0.1318 c-0.7908-0.1547-1.6775-0.2972-2.8056-0.2972c-0.6588,0-1.3404,0.0576-2.0255,0.1709c-1.4014,0.2337-2.5913,1.0737-3.8507,1.964 C33.4947,50.3471,31.6052,51.6829,28.6601,51.6829z"></path>
    </symbol>
    <symbol id="spotify" viewBox="0 0 56.69 56.69">
        <path d="M28.3411,3.813c-13.5932,0-24.613,11.019-24.613,24.6122s11.0198,24.6129,24.613,24.6129 c13.5936,0,24.6133-11.0197,24.6133-24.6129S41.9346,3.813,28.3411,3.813z M38.3264,40.0396c-0.3979,0-0.6699-0.138-1.0418-0.3646  c-3.5675-2.158-8.015-3.2921-12.7356-3.2921c-2.6336,0-5.2842,0.3374-7.7634,0.8533c-0.403,0.0876-0.9103,0.2436-1.2132,0.2436  c-0.9347,0-1.558-0.7431-1.558-1.5468c0-1.0348,0.5966-1.549,1.3389-1.691c3.04-0.6927,6.0676-1.0883,9.2123-1.0883  c5.3857,0,10.1859,1.2357,14.3165,3.7111c0.6147,0.3591,0.975,0.7253,0.975,1.6359C39.8572,39.388,39.1359,40.0396,38.3264,40.0396z   M41.0084,33.5251c-0.5341,0-0.8704-0.2156-1.233-0.4266c-4.0038-2.376-9.5529-3.9546-15.6295-3.9546  c-3.1168,0-5.8066,0.436-8.0333,1.0294c-0.4798,0.1318-0.749,0.2738-1.1977,0.2738c-1.0585,0-1.9226-0.8626-1.9226-1.9296  c0-1.0465,0.5073-1.7671,1.5309-2.0557c2.767-0.7598,5.5921-1.3459,9.7045-1.3459c6.4427,0,12.6751,1.6046,17.5749,4.5368  c0.8215,0.4716,1.124,1.0689,1.124,1.9454C42.9268,32.6641,42.0781,33.5251,41.0084,33.5251z M44.062,25.9488  c-0.5011,0-0.7986-0.1218-1.2683-0.379c-4.4549-2.6711-11.3684-4.1423-18.0547-4.1423c-3.3375,0-6.7274,0.3394-9.8325,1.1818  c-0.3576,0.09-0.8094,0.2692-1.2621,0.2692c-1.3129,0-2.3201-1.0386-2.3201-2.3515c0-1.3378,0.8289-2.0886,1.7232-2.3528  c3.5085-1.0336,7.4247-1.5153,11.6823-1.5153c7.2273,0,14.8312,1.4866,20.3857,4.7489c0.7485,0.424,1.2683,1.0635,1.2683,2.2352 C46.3837,24.9846,45.3051,25.9488,44.062,25.9488z"></path>
    </symbol>
    <symbol id="tiktok" viewBox="-32 0 512 512">
        <path d="m432.734375 112.464844c-53.742187 0-97.464844-43.722656-97.464844-97.464844 0-8.285156-6.714843-15-15-15h-80.335937c-8.28125 0-15 6.714844-15 15v329.367188c0 31.59375-25.707032 57.296874-57.300782 57.296874s-57.296874-25.703124-57.296874-57.296874c0-31.597657 25.703124-57.300782 57.296874-57.300782 8.285157 0 15-6.714844 15-15v-80.335937c0-8.28125-6.714843-15-15-15-92.433593 0-167.632812 75.203125-167.632812 167.636719 0 92.433593 75.199219 167.632812 167.632812 167.632812 92.433594 0 167.636719-75.199219 167.636719-167.632812v-145.792969c29.851563 15.917969 63.074219 24.226562 97.464844 24.226562 8.285156 0 15-6.714843 15-15v-80.335937c0-8.28125-6.714844-15-15-15zm0 0"></path>    </symbol>
    <symbol id="vimeo" viewBox="0 0 512 512">
        <path d="M511.751,137.03c-2.279,49.837 -37.085,118.065 -104.422,204.686c-69.61,90.446 -128.51,135.69 -176.676,135.69c-29.852,0 -55.11,-27.532 -75.739,-82.635c-13.775,-50.511 -27.537,-101.015 -41.324,-151.525c-15.321,-55.074 -31.746,-82.641 -49.329,-82.641c-3.832,0 -17.234,8.059 -40.184,24.107l-24.077,-31.021c25.264,-22.194 50.185,-44.387 74.705,-66.623c33.707,-29.107 59.025,-44.423 75.881,-45.97c39.836,-3.831 64.361,23.405 73.566,81.697c9.949,62.897 16.839,102.018 20.7,117.322c11.501,52.193 24.142,78.259 37.935,78.259c10.704,0 26.81,-16.927 48.284,-50.793c21.426,-33.843 32.91,-59.591 34.463,-77.298c3.064,-29.208 -8.426,-43.844 -34.463,-43.844c-12.263,0 -24.904,2.816 -37.905,8.39c25.17,-82.405 73.247,-122.429 144.198,-120.144c52.612,1.541 77.427,35.655 74.387,102.343Z"></path>
    </symbol>
    <symbol id="wechat" viewBox="0 0 24 24">
        <path d="M23.541 12.748c-.609-1.38-1.758-2.476-3.092-3.151-2.354-1.192-5.281-1.185-7.629.03-1.631.837-2.993 2.337-3.379 4.162-.318 1.344-.033 2.791.68 3.961 1.061 1.762 2.979 2.887 4.971 3.248 1.443.293 2.936.119 4.338-.285.842.326 1.592.854 2.408 1.246-.211-.707-.436-1.406-.676-2.102.916-.65 1.746-1.461 2.244-2.479.744-1.415.789-3.171.135-4.63zm-9.924-9.466c-2.495-1.404-5.602-1.615-8.286-.645-1.764.635-3.36 1.815-4.346 3.42-.895 1.45-1.23 3.258-.799 4.917.433 1.84 1.711 3.383 3.262 4.413-.3.85-.585 1.699-.855 2.555.975-.51 1.95-1.043 2.926-1.561 1.17.375 2.415.559 3.66.518-.33-.943-.405-1.965-.255-2.951.225-1.371.975-2.625 1.994-3.554 1.726-1.615 4.171-2.296 6.496-2.131-.436-2.135-1.936-3.939-3.824-4.98h.027zm1.733 9.989c-.209.652-1.156.848-1.615.352-.506-.459-.309-1.418.355-1.623.734-.31 1.582.537 1.26 1.271zm4.795.092c-.256.586-1.141.723-1.576.27-.209-.191-.27-.479-.344-.73.104-.458.42-.933.93-.955.705-.098 1.336.773.975 1.416h.015zM12.99 6.909c.008.961-1.275 1.561-1.995.909-.747-.535-.535-1.837.342-2.106.785-.315 1.713.344 1.651 1.185l.002.012zm-6.059.244c-.172.835-1.291 1.238-1.946.678-.759-.535-.546-1.861.345-2.131.873-.336 1.865.55 1.601 1.453z"></path>
    </symbol>
    <symbol id="weibo" viewBox="0 0 1792 1792">
        <path d="M675 1284q21-34 11-69t-45-50q-34-14-73-1t-60 46q-22 34-13 68.5t43 50.5 74.5 2.5 62.5-47.5zm94-121q8-13 3.5-26.5t-17.5-18.5q-14-5-28.5.5t-21.5 18.5q-17 31 13 45 14 5 29-.5t22-18.5zm174 107q-45 102-158 150t-224 12q-107-34-147.5-126.5t6.5-187.5q47-93 151.5-139t210.5-19q111 29 158.5 119.5t2.5 190.5zm312-160q-9-96-89-170t-208.5-109-274.5-21q-223 23-369.5 141.5t-132.5 264.5q9 96 89 170t208.5 109 274.5 21q223-23 369.5-141.5t132.5-264.5zm308 4q0 68-37 139.5t-109 137-168.5 117.5-226 83-270.5 31-275-33.5-240.5-93-171.5-151-65-199.5q0-115 69.5-245t197.5-258q169-169 341.5-236t246.5 7q65 64 20 209-4 14-1 20t10 7 14.5-.5 13.5-3.5l6-2q139-59 246-59t153 61q45 63 0 178-2 13-4.5 20t4.5 12.5 12 7.5 17 6q57 18 103 47t80 81.5 34 116.5zm-74-624q42 47 54.5 108.5t-6.5 117.5q-8 23-29.5 34t-44.5 4q-23-8-34-29.5t-4-44.5q20-63-24-111t-107-35q-24 5-45-8t-25-37q-5-24 8-44.5t37-25.5q60-13 119 5.5t101 65.5zm181-163q87 96 112.5 222.5t-13.5 241.5q-9 27-34 40t-52 4-40-34-5-52q28-82 10-172t-80-158q-62-69-148-95.5t-173-8.5q-28 6-52-9.5t-30-43.5 9.5-51.5 43.5-29.5q123-26 244 11.5t208 134.5z"></path>
    </symbol>
    <symbol id="whatsapp" viewBox="0 0 512 512">
        <path d="M373.295,307.064c-6.37,-3.188 -37.687,-18.596 -43.526,-20.724c-5.838,-2.126 -10.084,-3.187 -14.331,3.188c-4.246,6.376 -16.454,20.725 -20.17,24.976c-3.715,4.251 -7.431,4.785 -13.8,1.594c-6.37,-3.187 -26.895,-9.913 -51.225,-31.616c-18.935,-16.89 -31.72,-37.749 -35.435,-44.126c-3.716,-6.377 -0.397,-9.824 2.792,-13c2.867,-2.854 6.371,-7.44 9.555,-11.16c3.186,-3.718 4.247,-6.377 6.37,-10.626c2.123,-4.252 1.062,-7.971 -0.532,-11.159c-1.591,-3.188 -14.33,-34.542 -19.638,-47.298c-5.171,-12.419 -10.422,-10.737 -14.332,-10.934c-3.711,-0.184 -7.963,-0.223 -12.208,-0.223c-4.246,0 -11.148,1.594 -16.987,7.969c-5.838,6.377 -22.293,21.789 -22.293,53.14c0,31.355 22.824,61.642 26.009,65.894c3.185,4.252 44.916,68.59 108.816,96.181c15.196,6.564 27.062,10.483 36.312,13.418c15.259,4.849 29.145,4.165 40.121,2.524c12.238,-1.827 37.686,-15.408 42.995,-30.286c5.307,-14.882 5.307,-27.635 3.715,-30.292c-1.592,-2.657 -5.838,-4.251 -12.208,-7.44m-116.224,158.693l-0.086,0c-38.022,-0.015 -75.313,-10.23 -107.845,-29.535l-7.738,-4.592l-80.194,21.037l21.405,-78.19l-5.037,-8.017c-21.211,-33.735 -32.414,-72.726 -32.397,-112.763c0.047,-116.825 95.1,-211.87 211.976,-211.87c56.595,0.019 109.795,22.088 149.801,62.139c40.005,40.05 62.023,93.286 62.001,149.902c-0.048,116.834 -95.1,211.889 -211.886,211.889m180.332,-392.224c-48.131,-48.186 -112.138,-74.735 -180.335,-74.763c-140.514,0 -254.875,114.354 -254.932,254.911c-0.018,44.932 11.72,88.786 34.03,127.448l-36.166,132.102l135.141,-35.45c37.236,20.31 79.159,31.015 121.826,31.029l0.105,0c140.499,0 254.87,-114.366 254.928,-254.925c0.026,-68.117 -26.467,-132.166 -74.597,-180.352"></path>
    </symbol>
    <symbol id="email" viewBox="0 0 512 512">
        <path fill="currentColor" d="M502.3 190.8c3.9-3.1 9.7-.2 9.7 4.7V400c0 26.5-21.5 48-48 48H48c-26.5 0-48-21.5-48-48V195.6c0-5 5.7-7.8 9.7-4.7 22.4 17.4 52.1 39.5 154.1 113.6 21.1 15.4 56.7 47.8 92.2 47.6 35.7.3 72-32.8 92.3-47.6 102-74.1 131.6-96.3 154-113.7zM256 320c23.2.4 56.6-29.2 73.4-41.4 132.7-96.3 142.8-104.7 173.4-128.7 5.8-4.5 9.2-11.5 9.2-18.9v-19c0-26.5-21.5-48-48-48H48C21.5 64 0 85.5 0 112v19c0 7.4 3.4 14.3 9.2 18.9 30.6 23.9 40.7 32.4 173.4 128.7 16.8 12.2 50.2 41.8 73.4 41.4z"></path>
    </symbol>
    <symbol id="plus" viewBox="0 0 448 512">
        <path d="M416 208H272V64c0-17.67-14.33-32-32-32h-32c-17.67 0-32 14.33-32 32v144H32c-17.67 0-32 14.33-32 32v32c0 17.67 14.33 32 32 32h144v144c0 17.67 14.33 32 32 32h32c17.67 0 32-14.33 32-32V304h144c17.67 0 32-14.33 32-32v-32c0-17.67-14.33-32-32-32z"></path>
    </symbol>
    <symbol id="minus" viewBox="0 0 448 512">
        <path d="M416 208H32c-17.67 0-32 14.33-32 32v32c0 17.67 14.33 32 32 32h384c17.67 0 32-14.33 32-32v-32c0-17.67-14.33-32-32-32z"></path>
    </symbol>
    <symbol id="wifi" viewBox="0 0 640 512">
        <path d="M634.91 154.88C457.74-8.99 182.19-8.93 5.09 154.88c-6.66 6.16-6.79 16.59-.35 22.98l34.24 33.97c6.14 6.1 16.02 6.23 22.4.38 145.92-133.68 371.3-133.71 517.25 0 6.38 5.85 16.26 5.71 22.4-.38l34.24-33.97c6.43-6.39 6.3-16.82-.36-22.98zM320 352c-35.35 0-64 28.65-64 64s28.65 64 64 64 64-28.65 64-64-28.65-64-64-64zm202.67-83.59c-115.26-101.93-290.21-101.82-405.34 0-6.9 6.1-7.12 16.69-.57 23.15l34.44 33.99c6 5.92 15.66 6.32 22.05.8 83.95-72.57 209.74-72.41 293.49 0 6.39 5.52 16.05 5.13 22.05-.8l34.44-33.99c6.56-6.46 6.33-17.06-.56-23.15z"></path>
    </symbol>
    <symbol id="search" viewBox="0 0 512 512">
        <path d="M505 442.7L405.3 343c-4.5-4.5-10.6-7-17-7H372c27.6-35.3 44-79.7 44-128C416 93.1 322.9 0 208 0S0 93.1 0 208s93.1 208 208 208c48.3 0 92.7-16.4 128-44v16.3c0 6.4 2.5 12.5 7 17l99.7 99.7c9.4 9.4 24.6 9.4 33.9 0l28.3-28.3c9.4-9.4 9.4-24.6.1-34zM208 336c-70.7 0-128-57.2-128-128 0-70.7 57.2-128 128-128 70.7 0 128 57.2 128 128 0 70.7-57.2 128-128 128z"></path>
    </symbol>
    <symbol  id="search-thin" viewBox="0 0 45 45">
        <path d="M 21 3 C 11.621094 3 4 10.621094 4 20 C 4 29.378906 11.621094 37 21 37 C 24.710938 37 28.140625 35.804688 30.9375 33.78125 L 44.09375 46.90625 L 46.90625 44.09375 L 33.90625 31.0625 C 36.460938 28.085938 38 24.222656 38 20 C 38 10.621094 30.378906 3 21 3 Z M 21 5 C 29.296875 5 36 11.703125 36 20 C 36 28.296875 29.296875 35 21 35 C 12.703125 35 6 28.296875 6 20 C 6 11.703125 12.703125 5 21 5 Z"/>
    </symbol>
    <symbol id="user" viewBox="0 0 448 512">
        <path d="M224 256c70.7 0 128-57.3 128-128S294.7 0 224 0 96 57.3 96 128s57.3 128 128 128zm89.6 32h-16.7c-22.2 10.2-46.9 16-72.9 16s-50.6-5.8-72.9-16h-16.7C60.2 288 0 348.2 0 422.4V464c0 26.5 21.5 48 48 48h352c26.5 0 48-21.5 48-48v-41.6c0-74.2-60.2-134.4-134.4-134.4z"></path>
    </symbol>
    <symbol id="user-plus" viewBox="0 0 640 512">
        <path d="M624 208h-64v-64c0-8.8-7.2-16-16-16h-32c-8.8 0-16 7.2-16 16v64h-64c-8.8 0-16 7.2-16 16v32c0 8.8 7.2 16 16 16h64v64c0 8.8 7.2 16 16 16h32c8.8 0 16-7.2 16-16v-64h64c8.8 0 16-7.2 16-16v-32c0-8.8-7.2-16-16-16zm-400 48c70.7 0 128-57.3 128-128S294.7 0 224 0 96 57.3 96 128s57.3 128 128 128zm89.6 32h-16.7c-22.2 10.2-46.9 16-72.9 16s-50.6-5.8-72.9-16h-16.7C60.2 288 0 348.2 0 422.4V464c0 26.5 21.5 48 48 48h352c26.5 0 48-21.5 48-48v-41.6c0-74.2-60.2-134.4-134.4-134.4z"></path>
    </symbol>
    <symbol id="create-user" viewBox="0 0 30.168 25.473">
        <path d="M11.401 2.011a3.352 3.352 0 0 0-3.352 3.351v1.341a3.352 3.352 0 0 0 6.7 0V5.362a3.352 3.352 0 0 0-3.348-3.351zm0-2.011a5.363 5.363 0 0 1 5.363 5.362v1.341a5.364 5.364 0 0 1-10.727 0V5.362A5.363 5.363 0 0 1 11.401 0z"/><path data-name="Path 460" d="M20.782 21.45c0-3.257-3.239-6.033-7.374-6.033H9.386c-4.135 0-7.374 2.777-7.374 6.033v2.011h18.77zm2.011 2.874a1.256 1.256 0 0 1-1.341 1.149H1.341A1.256 1.256 0 0 1 0 24.324V21.45c0-4.442 4.2-8.044 9.386-8.044h4.022c5.183 0 9.386 3.6 9.386 8.044z"/><path data-name="Path 461" d="M19.777 10.055h9.386a1.08 1.08 0 0 1 1.006 1.006 1 1 0 0 1-1.006 1.006h-9.386a1.08 1.08 0 0 1-1.006-1.006 1 1 0 0 1 1.006-1.006z" fill-rule="evenodd"/><path data-name="Path 462" d="M25.474 6.368v9.386a1.08 1.08 0 0 1-1.006 1.006 1 1 0 0 1-1.005-1.007V6.368a1.08 1.08 0 0 1 1.006-1.006 1 1 0 0 1 1.005 1.006z" fill-rule="evenodd" />
    </symbol>
    <svg id="locked" viewBox="0 0 22.542 27.746">
        <path d="M32.461,15.409H31.6V12.083a6.93,6.93,0,1,0-13.857,0v3.295h-.862a3.5,3.5,0,0,0-3.48,3.48V29.266a3.5,3.5,0,0,0,3.48,3.48H32.461a3.5,3.5,0,0,0,3.48-3.48V18.857a3.47,3.47,0,0,0-3.48-3.449Zm-12.995,0V12.083a5.206,5.206,0,1,1,10.409,0v3.295H19.466v.031ZM34.184,29.266a1.722,1.722,0,0,1-1.725,1.725H16.878a1.722,1.722,0,0,1-1.725-1.725V18.857a1.722,1.722,0,0,1,1.725-1.725H32.462a1.722,1.722,0,0,1,1.725,1.725Zm-7.79-6.929a1.733,1.733,0,0,1-.862,1.508h0v2.833a.862.862,0,0,1-1.725,0V23.846h0a1.734,1.734,0,0,1,.862-3.233A1.685,1.685,0,0,1,26.395,22.337Z" transform="translate(-13.398 -5)" />
    </svg>
    <symbol id="sign-out-alt" viewBox="0 0 512 512">
        <path d="M497 273L329 441c-15 15-41 4.5-41-17v-96H152c-13.3 0-24-10.7-24-24v-96c0-13.3 10.7-24 24-24h136V88c0-21.4 25.9-32 41-17l168 168c9.3 9.4 9.3 24.6 0 34zM192 436v-40c0-6.6-5.4-12-12-12H96c-17.7 0-32-14.3-32-32V160c0-17.7 14.3-32 32-32h84c6.6 0 12-5.4 12-12V76c0-6.6-5.4-12-12-12H96c-53 0-96 43-96 96v192c0 53 43 96 96 96h84c6.6 0 12-5.4 12-12z"></path>
    </symbol>
    <symbol id="sign-in-alt" viewBox="0 0 512 512">
    <path d="M416 448h-84c-6.6 0-12-5.4-12-12v-40c0-6.6 5.4-12 12-12h84c17.7 0 32-14.3 32-32V160c0-17.7-14.3-32-32-32h-84c-6.6 0-12-5.4-12-12V76c0-6.6 5.4-12 12-12h84c53 0 96 43 96 96v192c0 53-43 96-96 96zm-47-201L201 79c-15-15-41-4.5-41 17v96H24c-13.3 0-24 10.7-24 24v96c0 13.3 10.7 24 24 24h136v96c0 21.5 26 32 41 17l168-168c9.3-9.4 9.3-24.6 0-34z"></path>
  </symbol>
    <symbol id="globe-americas" viewBox="0 0 496 512">
        <path d="M248 8C111.03 8 0 119.03 0 256s111.03 248 248 248 248-111.03 248-248S384.97 8 248 8zm82.29 357.6c-3.9 3.88-7.99 7.95-11.31 11.28-2.99 3-5.1 6.7-6.17 10.71-1.51 5.66-2.73 11.38-4.77 16.87l-17.39 46.85c-13.76 3-28 4.69-42.65 4.69v-27.38c1.69-12.62-7.64-36.26-22.63-51.25-6-6-9.37-14.14-9.37-22.63v-32.01c0-11.64-6.27-22.34-16.46-27.97-14.37-7.95-34.81-19.06-48.81-26.11-11.48-5.78-22.1-13.14-31.65-21.75l-.8-.72a114.792 114.792 0 0 1-18.06-20.74c-9.38-13.77-24.66-36.42-34.59-51.14 20.47-45.5 57.36-82.04 103.2-101.89l24.01 12.01C203.48 89.74 216 82.01 216 70.11v-11.3c7.99-1.29 16.12-2.11 24.39-2.42l28.3 28.3c6.25 6.25 6.25 16.38 0 22.63L264 112l-10.34 10.34c-3.12 3.12-3.12 8.19 0 11.31l4.69 4.69c3.12 3.12 3.12 8.19 0 11.31l-8 8a8.008 8.008 0 0 1-5.66 2.34h-8.99c-2.08 0-4.08.81-5.58 2.27l-9.92 9.65a8.008 8.008 0 0 0-1.58 9.31l15.59 31.19c2.66 5.32-1.21 11.58-7.15 11.58h-5.64c-1.93 0-3.79-.7-5.24-1.96l-9.28-8.06a16.017 16.017 0 0 0-15.55-3.1l-31.17 10.39a11.95 11.95 0 0 0-8.17 11.34c0 4.53 2.56 8.66 6.61 10.69l11.08 5.54c9.41 4.71 19.79 7.16 30.31 7.16s22.59 27.29 32 32h66.75c8.49 0 16.62 3.37 22.63 9.37l13.69 13.69a30.503 30.503 0 0 1 8.93 21.57 46.536 46.536 0 0 1-13.72 32.98zM417 274.25c-5.79-1.45-10.84-5-14.15-9.97l-17.98-26.97a23.97 23.97 0 0 1 0-26.62l19.59-29.38c2.32-3.47 5.5-6.29 9.24-8.15l12.98-6.49C440.2 193.59 448 223.87 448 256c0 8.67-.74 17.16-1.82 25.54L417 274.25z"></path>
    </symbol>
    <symbol id="video" viewBox="0 0 448 512">
        <path d="M424.4 214.7L72.4 6.6C43.8-10.3 0 6.1 0 47.9V464c0 37.5 40.7 60.1 72.4 41.3l352-208c31.4-18.5 31.5-64.1 0-82.6z"></path>
    </symbol>
    <symbol id="audio" viewBox="0 0 512 512">
        <path d="M256 32C114.52 32 0 146.496 0 288v48a32 32 0 0 0 17.689 28.622l14.383 7.191C34.083 431.903 83.421 480 144 480h24c13.255 0 24-10.745 24-24V280c0-13.255-10.745-24-24-24h-24c-31.342 0-59.671 12.879-80 33.627V288c0-105.869 86.131-192 192-192s192 86.131 192 192v1.627C427.671 268.879 399.342 256 368 256h-24c-13.255 0-24 10.745-24 24v176c0 13.255 10.745 24 24 24h24c60.579 0 109.917-48.098 111.928-108.187l14.382-7.191A32 32 0 0 0 512 336v-48c0-141.479-114.496-256-256-256z"></path>
    </symbol>
    <symbol id="text" viewBox="0 0 576 512">
        <path d="M552 64H88c-13.255 0-24 10.745-24 24v8H24c-13.255 0-24 10.745-24 24v272c0 30.928 25.072 56 56 56h472c26.51 0 48-21.49 48-48V88c0-13.255-10.745-24-24-24zM56 400a8 8 0 0 1-8-8V144h16v248a8 8 0 0 1-8 8zm236-16H140c-6.627 0-12-5.373-12-12v-8c0-6.627 5.373-12 12-12h152c6.627 0 12 5.373 12 12v8c0 6.627-5.373 12-12 12zm208 0H348c-6.627 0-12-5.373-12-12v-8c0-6.627 5.373-12 12-12h152c6.627 0 12 5.373 12 12v8c0 6.627-5.373 12-12 12zm-208-96H140c-6.627 0-12-5.373-12-12v-8c0-6.627 5.373-12 12-12h152c6.627 0 12 5.373 12 12v8c0 6.627-5.373 12-12 12zm208 0H348c-6.627 0-12-5.373-12-12v-8c0-6.627 5.373-12 12-12h152c6.627 0 12 5.373 12 12v8c0 6.627-5.373 12-12 12zm0-96H140c-6.627 0-12-5.373-12-12v-40c0-6.627 5.373-12 12-12h360c6.627 0 12 5.373 12 12v40c0 6.627-5.373 12-12 12z"></path>
    </symbol>
    <symbol id="calendar" viewBox="0 0 511.634 511.634">
        <path d="M482.513,83.942c-7.225-7.233-15.797-10.85-25.694-10.85h-36.541v-27.41c0-12.56-4.477-23.315-13.422-32.261
		C397.906,4.475,387.157,0,374.591,0h-18.268c-12.565,0-23.318,4.475-32.264,13.422c-8.949,8.945-13.422,19.701-13.422,32.261v27.41
		h-109.63v-27.41c0-12.56-4.475-23.315-13.422-32.261C178.64,4.475,167.886,0,155.321,0H137.05
		c-12.562,0-23.317,4.475-32.264,13.422c-8.945,8.945-13.421,19.701-13.421,32.261v27.41H54.823c-9.9,0-18.464,3.617-25.697,10.85
		c-7.233,7.232-10.85,15.8-10.85,25.697v365.453c0,9.89,3.617,18.456,10.85,25.693c7.232,7.231,15.796,10.849,25.697,10.849h401.989
		c9.897,0,18.47-3.617,25.694-10.849c7.234-7.234,10.852-15.804,10.852-25.693V109.639
		C493.357,99.739,489.743,91.175,482.513,83.942z M137.047,475.088H54.823v-82.23h82.224V475.088z M137.047,374.59H54.823v-91.358
		h82.224V374.59z M137.047,264.951H54.823v-82.223h82.224V264.951z M130.627,134.333c-1.809-1.809-2.712-3.946-2.712-6.423V45.686
		c0-2.474,0.903-4.617,2.712-6.423c1.809-1.809,3.946-2.712,6.423-2.712h18.271c2.474,0,4.617,0.903,6.423,2.712
		c1.809,1.807,2.714,3.949,2.714,6.423v82.224c0,2.478-0.909,4.615-2.714,6.423c-1.807,1.809-3.946,2.712-6.423,2.712H137.05
		C134.576,137.046,132.436,136.142,130.627,134.333z M246.683,475.088h-91.365v-82.23h91.365V475.088z M246.683,374.59h-91.365
		v-91.358h91.365V374.59z M246.683,264.951h-91.365v-82.223h91.365V264.951z M356.323,475.088h-91.364v-82.23h91.364V475.088z
		 M356.323,374.59h-91.364v-91.358h91.364V374.59z M356.323,264.951h-91.364v-82.223h91.364V264.951z M349.896,134.333
		c-1.807-1.809-2.707-3.946-2.707-6.423V45.686c0-2.474,0.9-4.617,2.707-6.423c1.808-1.809,3.949-2.712,6.427-2.712h18.268
		c2.478,0,4.617,0.903,6.427,2.712c1.808,1.807,2.707,3.949,2.707,6.423v82.224c0,2.478-0.903,4.615-2.707,6.423
		c-1.807,1.809-3.949,2.712-6.427,2.712h-18.268C353.846,137.046,351.697,136.142,349.896,134.333z M456.812,475.088h-82.228v-82.23
		h82.228V475.088z M456.812,374.59h-82.228v-91.358h82.228V374.59z M456.812,264.951h-82.228v-82.223h82.228V264.951z"/>
    </symbol>
    <symbol id="download" viewBox="0 0 475.078 475.077">
        <path d="M467.083,318.627c-5.324-5.328-11.8-7.994-19.41-7.994H315.195l-38.828,38.827c-11.04,10.657-23.982,15.988-38.828,15.988
			c-14.843,0-27.789-5.324-38.828-15.988l-38.543-38.827H27.408c-7.612,0-14.083,2.669-19.414,7.994
			C2.664,323.955,0,330.427,0,338.044v91.358c0,7.614,2.664,14.085,7.994,19.414c5.33,5.328,11.801,7.99,19.414,7.99h420.266
			c7.61,0,14.086-2.662,19.41-7.99c5.332-5.329,7.994-11.8,7.994-19.414v-91.358C475.078,330.427,472.416,323.955,467.083,318.627z
			 M360.025,414.841c-3.621,3.617-7.905,5.424-12.854,5.424s-9.227-1.807-12.847-5.424c-3.614-3.617-5.421-7.898-5.421-12.844
			c0-4.948,1.807-9.236,5.421-12.847c3.62-3.62,7.898-5.431,12.847-5.431s9.232,1.811,12.854,5.431
			c3.613,3.61,5.421,7.898,5.421,12.847C365.446,406.942,363.638,411.224,360.025,414.841z M433.109,414.841
			c-3.614,3.617-7.898,5.424-12.848,5.424c-4.948,0-9.229-1.807-12.847-5.424c-3.613-3.617-5.42-7.898-5.42-12.844
			c0-4.948,1.807-9.236,5.42-12.847c3.617-3.62,7.898-5.431,12.847-5.431c4.949,0,9.233,1.811,12.848,5.431
			c3.617,3.61,5.427,7.898,5.427,12.847C438.536,406.942,436.729,411.224,433.109,414.841z"/>
		<path d="M224.692,323.479c3.428,3.613,7.71,5.421,12.847,5.421c5.141,0,9.418-1.808,12.847-5.421l127.907-127.908
			c5.899-5.519,7.234-12.182,3.997-19.986c-3.23-7.421-8.847-11.132-16.844-11.136h-73.091V36.543c0-4.948-1.811-9.231-5.421-12.847
			c-3.62-3.617-7.901-5.426-12.847-5.426h-73.096c-4.946,0-9.229,1.809-12.847,5.426c-3.615,3.616-5.424,7.898-5.424,12.847V164.45
			h-73.089c-7.998,0-13.61,3.715-16.846,11.136c-3.234,7.801-1.903,14.467,3.999,19.986L224.692,323.479z"/>
    </symbol>
    <symbol id="ellipsis-v" viewBox="0 0 192 512">
        <path fill="currentColor" d="M96 184c39.8 0 72 32.2 72 72s-32.2 72-72 72-72-32.2-72-72 32.2-72 72-72zM24 80c0 39.8 32.2 72 72 72s72-32.2 72-72S135.8 8 96 8 24 40.2 24 80zm0 352c0 39.8 32.2 72 72 72s72-32.2 72-72-32.2-72-72-72-72 32.2-72 72z"></path>
    </symbol>
    <symbol id="chevron-down" viewBox="0 0 448 512">
        <path d="M207.029 381.476L12.686 187.132c-9.373-9.373-9.373-24.569 0-33.941l22.667-22.667c9.357-9.357 24.522-9.375 33.901-.04L224 284.505l154.745-154.021c9.379-9.335 24.544-9.317 33.901.04l22.667 22.667c9.373 9.373 9.373 24.569 0 33.941L240.971 381.476c-9.373 9.372-24.569 9.372-33.942 0z"></path>
    </symbol>
    <symbol id="chevron-up" viewBox="0 0 448 512">
        <path d="M240.971 130.524l194.343 194.343c9.373 9.373 9.373 24.569 0 33.941l-22.667 22.667c-9.357 9.357-24.522 9.375-33.901.04L224 227.495 69.255 381.516c-9.379 9.335-24.544 9.317-33.901-.04l-22.667-22.667c-9.373-9.373-9.373-24.569 0-33.941L207.03 130.525c9.372-9.373 24.568-9.373 33.941-.001z"></path>
    </symbol>
    <symbol id="chevron-right" viewBox="0 0 24 24">
        <path fill="none" d="M0 0h24v24H0V0z"/><path d="M9.29 6.71c-.39.39-.39 1.02 0 1.41L13.17 12l-3.88 3.88c-.39.39-.39 1.02 0 1.41.39.39 1.02.39 1.41 0l4.59-4.59c.39-.39.39-1.02 0-1.41L10.7 6.7c-.38-.38-1.02-.38-1.41.01z"/>
    </symbol>
    <symbol id="chevron-left" viewBox="0 0 24 24">
        <path d="M13.36 17a1 1 0 0 1-.72-.31l-3.86-4a1 1 0 0 1 0-1.4l4-4a1 1 0 1 1 1.42 1.42L10.9 12l3.18 3.3a1 1 0 0 1 0 1.41 1 1 0 0 1-.72.29z" data-name="chevron-left"/>
    </symbol>
    <symbol id="chevron-double-left" viewBox="0 0 24 24">
        <path d="M17,17a1,1,0,0,1-.71-.29l-4-4a1,1,0,0,1,0-1.41l4-4a1,1,0,0,1,1.41,1.41L14.41,12l3.29,3.29A1,1,0,0,1,17,17Z"/><path d="M11,17a1,1,0,0,1-.71-.29l-4-4a1,1,0,0,1,0-1.41l4-4a1,1,0,0,1,1.41,1.41L8.41,12l3.29,3.29A1,1,0,0,1,11,17Z"/>
    </symbol>
    <symbol id="chevron-double-right" viewBox="0 0 24 24">
        <path d="M7,17a1,1,0,0,1-.71-1.71L9.59,12,6.29,8.71A1,1,0,0,1,7.71,7.29l4,4a1,1,0,0,1,0,1.41l-4,4A1,1,0,0,1,7,17Z"/><path d="M13,17a1,1,0,0,1-.71-1.71L15.59,12,12.29,8.71a1,1,0,0,1,1.41-1.41l4,4a1,1,0,0,1,0,1.41l-4,4A1,1,0,0,1,13,17Z"/>
    </symbol>
    <symbol id="chevron-circle-down" viewBox="0 0 512 512">
        <path d="M504 256c0 137-111 248-248 248S8 393 8 256 119 8 256 8s248 111 248 248zM273 369.9l135.5-135.5c9.4-9.4 9.4-24.6 0-33.9l-17-17c-9.4-9.4-24.6-9.4-33.9 0L256 285.1 154.4 183.5c-9.4-9.4-24.6-9.4-33.9 0l-17 17c-9.4 9.4-9.4 24.6 0 33.9L239 369.9c9.4 9.4 24.6 9.4 34 0z"></path>
    </symbol>
    <symbol id="caret-down" viewBox="0 0 320 512">
        <path d="M31.3 192h257.3c17.8 0 26.7 21.5 14.1 34.1L174.1 354.8c-7.8 7.8-20.5 7.8-28.3 0L17.2 226.1C4.6 213.5 13.5 192 31.3 192z"></path>
    </symbol>
    <symbol id="caret-up" viewBox="0 0 320 512">
        <path d="M288.662 352H31.338c-17.818 0-26.741-21.543-14.142-34.142l128.662-128.662c7.81-7.81 20.474-7.81 28.284 0l128.662 128.662c12.6 12.599 3.676 34.142-14.142 34.142z"></path>
    </symbol>
    <symbol id="bars" viewBox="0 0 448 512">
        <path d="M16 132h416c8.837 0 16-7.163 16-16V76c0-8.837-7.163-16-16-16H16C7.163 60 0 67.163 0 76v40c0 8.837 7.163 16 16 16zm0 160h416c8.837 0 16-7.163 16-16v-40c0-8.837-7.163-16-16-16H16c-8.837 0-16 7.163-16 16v40c0 8.837 7.163 16 16 16zm0 160h416c8.837 0 16-7.163 16-16v-40c0-8.837-7.163-16-16-16H16c-8.837 0-16 7.163-16 16v40c0 8.837 7.163 16 16 16z"></path>
    </symbol>
    <symbol id="times" viewBox="0 0 352 512">
        <path d="M242.72 256l100.07-100.07c12.28-12.28 12.28-32.19 0-44.48l-22.24-22.24c-12.28-12.28-32.19-12.28-44.48 0L176 189.28 75.93 89.21c-12.28-12.28-32.19-12.28-44.48 0L9.21 111.45c-12.28 12.28-12.28 32.19 0 44.48L109.28 256 9.21 356.07c-12.28 12.28-12.28 32.19 0 44.48l22.24 22.24c12.28 12.28 32.2 12.28 44.48 0L176 322.72l100.07 100.07c12.28 12.28 32.2 12.28 44.48 0l22.24-22.24c12.28-12.28 12.28-32.19 0-44.48L242.72 256z"></path>
    </symbol>
    <symbol id="caret-down" viewBox="0 0 320 512">
        <path d="M31.3 192h257.3c17.8 0 26.7 21.5 14.1 34.1L174.1 354.8c-7.8 7.8-20.5 7.8-28.3 0L17.2 226.1C4.6 213.5 13.5 192 31.3 192z"></path>
    </symbol>
    <symbol id="caret-up" viewBox="0 0 320 512">
        <path d="M288.662 352H31.338c-17.818 0-26.741-21.543-14.142-34.142l128.662-128.662c7.81-7.81 20.474-7.81 28.284 0l128.662 128.662c12.6 12.599 3.676 34.142-14.142 34.142z"></path>
    </symbol>
    <symbol id="check-circle" viewBox="0 0 512 512">
        <path d="M256 8C119.033 8 8 119.033 8 256s111.033 248 248 248 248-111.033 248-248S392.967 8 256 8zm0 48c110.532 0 200 89.451 200 200 0 110.532-89.451 200-200 200-110.532 0-200-89.451-200-200 0-110.532 89.451-200 200-200m140.204 130.267l-22.536-22.718c-4.667-4.705-12.265-4.736-16.97-.068L215.346 303.697l-59.792-60.277c-4.667-4.705-12.265-4.736-16.97-.069l-22.719 22.536c-4.705 4.667-4.736 12.265-.068 16.971l90.781 91.516c4.667 4.705 12.265 4.736 16.97.068l172.589-171.204c4.704-4.668 4.734-12.266.067-16.971z"></path>
    </symbol>
    <symbol id="angle-right" viewBox="0 0 256 512">
        <path d="M224.3 273l-136 136c-9.4 9.4-24.6 9.4-33.9 0l-22.6-22.6c-9.4-9.4-9.4-24.6 0-33.9l96.4-96.4-96.4-96.4c-9.4-9.4-9.4-24.6 0-33.9L54.3 103c9.4-9.4 24.6-9.4 33.9 0l136 136c9.5 9.4 9.5 24.6.1 34z"></path>
    </symbol>
    <symbol id="shopping-cart" viewBox="0 0 576 512">
        <path d="M528.12 301.319l47.273-208C578.806 78.301 567.391 64 551.99 64H159.208l-9.166-44.81C147.758 8.021 137.93 0 126.529 0H24C10.745 0 0 10.745 0 24v16c0 13.255 10.745 24 24 24h69.883l70.248 343.435C147.325 417.1 136 435.222 136 456c0 30.928 25.072 56 56 56s56-25.072 56-56c0-15.674-6.447-29.835-16.824-40h209.647C430.447 426.165 424 440.326 424 456c0 30.928 25.072 56 56 56s56-25.072 56-56c0-22.172-12.888-41.332-31.579-50.405l5.517-24.276c3.413-15.018-8.002-29.319-23.403-29.319H218.117l-6.545-32h293.145c11.206 0 20.92-7.754 23.403-18.681z"></path>
    </symbol>
    <symbol id="accordionPlus" viewBox="0 0 448 512">
        <path d="M400 32H48C21.5 32 0 53.5 0 80v352c0 26.5 21.5 48 48 48h352c26.5 0 48-21.5 48-48V80c0-26.5-21.5-48-48-48zM92 296c-6.6 0-12-5.4-12-12v-56c0-6.6 5.4-12 12-12h264c6.6 0 12 5.4 12 12v56c0 6.6-5.4 12-12 12H92z"/>
    </symbol>
    <symbol id="accordionMinus" viewBox="0 0 448 512">
        <path d="M400 32H48C21.5 32 0 53.5 0 80v352c0 26.5 21.5 48 48 48h352c26.5 0 48-21.5 48-48V80c0-26.5-21.5-48-48-48zm-32 252c0 6.6-5.4 12-12 12h-92v92c0 6.6-5.4 12-12 12h-56c-6.6 0-12-5.4-12-12v-92H92c-6.6 0-12-5.4-12-12v-56c0-6.6 5.4-12 12-12h92v-92c0-6.6 5.4-12 12-12h56c6.6 0 12 5.4 12 12v92h92c6.6 0 12 5.4 12 12v56z"/>
    </symbol>
    <symbol id="home" viewBox="0 0 50 50">
        <path d="M 25 1.0507812 C 24.7825 1.0507812 24.565859 1.1197656 24.380859 1.2597656 L 1.3808594 19.210938 C 0.95085938 19.550938 0.8709375 20.179141 1.2109375 20.619141 C 1.5509375 21.049141 2.1791406 21.129062 2.6191406 20.789062 L 4 19.710938 L 4 46 C 4 46.55 4.45 47 5 47 L 19 47 L 19 29 L 31 29 L 31 47 L 45 47 C 45.55 47 46 46.55 46 46 L 46 19.710938 L 47.380859 20.789062 C 47.570859 20.929063 47.78 21 48 21 C 48.3 21 48.589063 20.869141 48.789062 20.619141 C 49.129063 20.179141 49.049141 19.550938 48.619141 19.210938 L 25.619141 1.2597656 C 25.434141 1.1197656 25.2175 1.0507812 25 1.0507812 z M 35 5 L 35 6.0507812 L 41 10.730469 L 41 5 L 35 5 z"></path>
    </symbol>
    <symbol id="list" viewBox="0 0 24 24">
        <g>
            <path d="M20,2H4C2.9,2,2,2.9,2,4v4c0,1.1,0.9,2,2,2h16c1.1,0,2-0.9,2-2V4C22,2.9,21.1,2,20,2z"/>
            <path d="M20,14H4c-1.1,0-2,0.9-2,2v4c0,1.1,0.9,2,2,2h16c1.1,0,2-0.9,2-2v-4C22,14.9,21.1,14,20,14z"/>
        </g>
    </symbol>
    <symbol id="grid" viewBox="0 0 32 32">
        <g>
            <path d="M15.42,7.221c0-0.951-0.771-1.721-1.721-1.721H6.729c-0.951,0-1.721,0.771-1.721,1.721v6.103   c0,0.951,0.771,1.721,1.721,1.721h6.971c0.951,0,1.721-0.771,1.721-1.721V7.221z" fill="currentColor"/>
            <path d="M27.742,7.221c0-0.951-0.77-1.721-1.721-1.721h-6.971c-0.951,0-1.721,0.771-1.721,1.721v6.103   c0,0.951,0.77,1.721,1.721,1.721h6.971c0.951,0,1.721-0.771,1.721-1.721V7.221z" fill="currentColor"/>
            <path d="M15.42,18.676c0-0.951-0.771-1.721-1.721-1.721H6.729c-0.951,0-1.721,0.77-1.721,1.721v6.104   c0,0.95,0.771,1.721,1.721,1.721h6.971c0.951,0,1.721-0.771,1.721-1.721V18.676z" fill="currentColor"/>
            <path d="M27.742,18.676c0-0.951-0.77-1.721-1.721-1.721h-6.971c-0.951,0-1.721,0.77-1.721,1.721v6.104   c0,0.95,0.77,1.721,1.721,1.721h6.971c0.951,0,1.721-0.771,1.721-1.721V18.676z" fill="currentColor"/>
        </g>
    </symbol>
    <symbol id="calendar" viewBox="0 0 20 22">
        <g stroke="none" stroke-width="1" fill="none" fill-rule="evenodd">
            <g id="Rounded" transform="translate(-476.000000, -199.000000)">
                <g id="Action" transform="translate(100.000000, 100.000000)">
                    <g id="-Round-/-Action-/-calendar_today" transform="translate(374.000000, 98.000000)">
                        <g>
                            <polygon id="Path" points="0 0 24 0 24 24 0 24"></polygon>
                            <path d="M20,3 L19,3 L19,2 C19,1.45 18.55,1 18,1 C17.45,1 17,1.45 17,2 L17,3 L7,3 L7,2 C7,1.45 6.55,1 6,1 C5.45,1 5,1.45 5,2 L5,3 L4,3 C2.9,3 2,3.9 2,5 L2,21 C2,22.1 2.9,23 4,23 L20,23 C21.1,23 22,22.1 22,21 L22,5 C22,3.9 21.1,3 20,3 Z M19,21 L5,21 C4.45,21 4,20.55 4,20 L4,8 L20,8 L20,20 C20,20.55 19.55,21 19,21 Z" id="🔹Icon-Color" fill="#1D1D1D"></path>
                        </g>
                    </g>
                </g>
            </g>
        </g>
    </symbol>
    <symbol id="mail" viewBox="0 0 56.75 32.5">
        <g data-name="Mail Icon" transform="translate(-4966.5 -1181.5)">
            <g id="Group_5561" data-name="Group 5561" transform="translate(1 -0.75)">
            <path id="Path_3804" data-name="Path 3804" d="M4968.5,1182.75h52l-27,19Z" stroke-linecap="round" stroke-linejoin="round" stroke-width="1"/>
            <path id="Path_3805" data-name="Path 3805" d="M5007,1198.5l14.75-11.5v26Z" stroke-linecap="round" stroke-linejoin="round" stroke-width="1"/>
            <path id="Path_3806" data-name="Path 3806" d="M5021.75,1198.5,5007,1187v26Z" transform="translate(-41)" stroke-linecap="round" stroke-linejoin="round" stroke-width="1"/>
            <path id="Path_3807" data-name="Path 3807" d="M4985.5,1201.75l8,5.25,8.75-5.25,14.25,12.5h-45.25Z" stroke-linecap="round" stroke-linejoin="round" stroke-width="1"/>
            </g>
        </g>
    </symbol>
    <symbol id="lock" viewBox="0 0 46 48.321">
        <g id="Lock_Icon" data-name="Lock Icon" transform="translate(-5200 -1172.75)">
            <g id="Group_5562" data-name="Group 5562" transform="translate(0 1.071)">
                <g id="Rectangle_2588" data-name="Rectangle 2588" transform="translate(5200 1189)" fill="none" stroke="currentColor" stroke-linejoin="round" stroke-width="2.5">
                    <rect width="46" height="31" rx="3" stroke="none"/>
                    <rect x="1.25" y="1.25" width="43.5" height="28.5" rx="1.75" fill="none"/>
                </g>
                <g id="Ellipse_4" data-name="Ellipse 4" transform="translate(5218 1196)" fill="none" stroke="currentColor" stroke-width="2.5">
                    <circle cx="5" cy="5" r="5" stroke="none"/>
                    <circle cx="5" cy="5" r="3.75" fill="none"/>
                </g>
                <path id="Path_3808" data-name="Path 3808" d="M5223,1205.178v8.284" fill="none" stroke="currentColor" stroke-linecap="round" stroke-width="2.5"/>
                <path id="Path_3809" data-name="Path 3809" d="M5212.1,1189s-3.3-16.071,10.168-16.071S5232.578,1189,5232.578,1189" transform="translate(0.828)" fill="none" stroke="currentColor" stroke-linecap="round" stroke-linejoin="round" stroke-width="2.5"/>
            </g>
        </g>
    </symbol>
    <symbol id="note" viewBox="0 0 48 49">
        <g id="Note_Icon" data-name="Note Icon" transform="translate(-5429 -1174)">
            <g id="Group_5563" data-name="Group 5563" transform="translate(0 1)">
                <g id="Rectangle_2589" data-name="Rectangle 2589" transform="translate(5429 1173)" fill="none" stroke="currentColor" stroke-linecap="round" stroke-linejoin="round" stroke-width="3">
                    <rect width="48" height="49" rx="5" stroke="none"/>
                    <rect x="1.5" y="1.5" width="45" height="46" rx="3.5" fill="none"/>
                </g>
                <line id="Line_1" data-name="Line 1" x2="28" transform="translate(5438.5 1186.5)" fill="none" stroke="currentColor" stroke-linecap="round" stroke-width="3"/>
                <line id="Line_2" data-name="Line 2" x2="24" transform="translate(5438.5 1197.5)" fill="none" stroke="currentColor" stroke-linecap="round" stroke-width="3"/>
                <line id="Line_3" data-name="Line 3" x2="16" transform="translate(5438.5 1208.5)" fill="none" stroke="currentColor" stroke-linecap="round" stroke-width="3"/>
            </g>
        </g>
    </symbol>
    <symbol id="profile" viewBox="0 0 39.75 47.6">
        <g id="Profile_Icon" data-name="Profile Icon" transform="translate(-5661 -1174)">
            <g id="Group_5564" data-name="Group 5564" transform="translate(1 1)">
                <g id="Ellipse_7" data-name="Ellipse 7" transform="translate(5669 1173)" fill="none" stroke-width="3">
                    <circle cx="11.5" cy="11.5" r="11.5" stroke="none"/>
                    <circle cx="11.5" cy="11.5" r="10" fill="none"/>
                </g>
                <g id="Path_3810" data-name="Path 3810" transform="translate(5661.294 1198.375)" fill="none" stroke-linecap="round" stroke-linejoin="round">
                    <path d="M18.6,0C28.791,0,38.456,13.388,38.456,19.134c0,2.856-9.674,2.981-19.854,3.069-9.694.085-19.9.1-19.9-3.069C-1.294,12.84,8.413,0,18.6,0Z" stroke="none"/>
                    <path d="M 18.60157775878906 3.000001907348633 C 14.92470741271973 3.000001907348633 10.70851898193359 5.276151657104492 7.034078598022461 9.244812965393066 C 3.979976654052734 12.5434627532959 2.197147369384766 16.05417251586914 1.793704986572266 18.25929260253906 C 2.372016906738281 18.45457458496094 3.488975524902344 18.72724723815918 5.536157608032227 18.92367172241211 C 7.710548400878906 19.13230323791504 10.45265769958496 19.225341796875 14.42726898193359 19.225341796875 C 15.85677909851074 19.225341796875 17.31794738769531 19.21359252929688 18.57558822631836 19.20258331298828 C 22.41223907470703 19.16934204101562 26.76078796386719 19.13166236877441 30.18192863464355 18.8861026763916 C 33.06552124023438 18.67913055419922 34.56522369384766 18.36749649047852 35.31665420532227 18.14189147949219 C 35.15823745727539 17.46349334716797 34.82318496704102 16.45711517333984 34.12059020996094 15.09643268585205 C 33.14022827148438 13.19782257080078 31.72230911254883 11.18490219116211 30.12803840637207 9.428472518920898 C 26.41983795166016 5.34309196472168 22.21859741210938 3.000001907348633 18.60157775878906 3.000001907348633 M 18.60157775878906 1.9073486328125e-06 C 28.79051971435547 1.9073486328125e-06 38.45556640625 13.38791275024414 38.45556640625 19.13363265991211 C 38.45556640625 21.9892520904541 28.78161811828613 22.11426162719727 18.60157775878906 22.20247268676758 C 8.907341003417969 22.28737258911133 -1.294429779052734 22.29938316345215 -1.294429779052734 19.13363265991211 C -1.294429779052734 12.83989238739014 8.412649154663086 1.9073486328125e-06 18.60157775878906 1.9073486328125e-06 Z" stroke="none" fill="current"/>
                </g>
            </g>
        </g>
    </symbol>
    <symbol id="check" viewBox="0 0 50.022 36.219">
        <g id="Check_Icon" data-name="Check Icon" transform="translate(-6052.851 -1172.845)">
            <path id="Path_3811" data-name="Path 3811" d="M6057.952,1202.821l13.427,12.051,25.291-26.564" transform="translate(0.548 -9.809)" fill="none" stroke="currentColor" stroke-linecap="round" stroke-linejoin="round" stroke-width="8"/>
        </g>
    </symbol>
</svg>